<svg xmlns="http://www.w3.org/2000/svg" xmlns:xlink="http://www.w3.org/1999/xlink" viewBox="0 0 439.76 618.91"><defs><style>.cls-1{fill:none;}.cls-2{clip-path:url(#clip-path);}.cls-3{fill:url(#Degradado_sin_nombre_2);}.cls-4{clip-path:url(#clip-path-2);}.cls-5{fill:url(#Degradado_sin_nombre_2-2);}</style><clipPath id="clip-path" transform="translate(0 0)"><path class="cls-1" d="M355.12,235.15l-8.49,8.49-49.41,49.41-29,29-70.74,70.74-6.23-23.26a6.1,6.1,0,0,0-10.2-2.73l-18.3,18.3a7.93,7.93,0,0,0-2.05,7.66L170,427.59a20.23,20.23,0,0,0,33.85,9.07l63.27-63.27h0l11.71-11.71,29-29,6.9-6.9,0,0,59.63-59.62a16.86,16.86,0,0,1,2.94-2.94,16.63,16.63,0,0,1,10.2-3.51,17,17,0,0,1,16.73,17v290a16.81,16.81,0,0,1-16.6,16.82A16.54,16.54,0,0,1,372,572.12v0a15,15,0,0,1-.47-1.74.11.11,0,0,1,0,0l-12.61-47.07-41.7-155.64A6.1,6.1,0,0,0,307,364.88l-18.3,18.3a7.93,7.93,0,0,0-2.05,7.66l49.78,185.77v0l2,7.27h0a52.16,52.16,0,0,0,46.13,34.89q1.55.1,3.12.1a52.09,52.09,0,0,0,52.14-52.14V276.07a52.21,52.21,0,0,0-84.64-40.92"/></clipPath><linearGradient id="Degradado_sin_nombre_2" x1="-177.13" y1="794.47" x2="-176.13" y2="794.47" gradientTransform="matrix(279.35, 0, 0, -279.35, 49642.01, 222356.99)" gradientUnits="userSpaceOnUse"><stop offset="0" stop-color="#fb3e21"/><stop offset="0.01" stop-color="#fb3e21"/><stop offset="0.22" stop-color="#fb4f1c"/><stop offset="0.64" stop-color="#fb7c10"/><stop offset="0.99" stop-color="#fba704"/><stop offset="1" stop-color="#fba704"/></linearGradient><clipPath id="clip-path-2" transform="translate(0 0)"><path class="cls-1" d="M35.52,2.72A52.23,52.23,0,0,0,0,52.21V390.61a52.21,52.21,0,0,0,28.9,46.73,51.49,51.49,0,0,0,6.62,2.76A52.29,52.29,0,0,0,86.43,430l5.22-5.22L141.52,375v0l11.36-11.36,29-29,12.36-12.36v0l58.38-58.38L258.8,287A6.1,6.1,0,0,0,269,289.7l18.3-18.29a7.93,7.93,0,0,0,2.05-7.66l-4.47-16.66a31,31,0,0,0-51.84-13.89l-37.14,37.14.07.07-24.7,24.7-29,29-.7.7-.07-.07L65.39,400.85a16.83,16.83,0,0,1-2.94,2.94,16.63,16.63,0,0,1-10.2,3.51,17,17,0,0,1-16.73-17V52.48a16.69,16.69,0,0,1,32.36-6v0a16.22,16.22,0,0,1,.77,2.88v0L81.08,95.72l51.82,193.42a6.1,6.1,0,0,0,10.2,2.73l18.3-18.3a7.93,7.93,0,0,0,2.05-7.66L103.33,41.49h0l-1.49-5.56v0A52.25,52.25,0,0,0,55.46.1Q53.85,0,52.21,0A52.14,52.14,0,0,0,35.52,2.72"/></clipPath><linearGradient id="Degradado_sin_nombre_2-2" x1="-177.13" y1="794.47" x2="-176.13" y2="794.47" gradientTransform="matrix(-289.63, 0, 0, 289.63, -51014.65, -229876.78)" xlink:href="#Degradado_sin_nombre_2"/></defs><title>logo-gradient</title><g id="Capa_2" data-name="Capa 2"><g id="Capa_1-2" data-name="Capa 1"><g class="cls-2"><rect class="cls-3" x="159.94" y="223.86" width="279.82" height="395.05"/></g><g class="cls-4"><rect class="cls-5" width="290.09" height="442.82"/></g></g></g></svg>