<svg xmlns="http://www.w3.org/2000/svg" xmlns:xlink="http://www.w3.org/1999/xlink" viewBox="0 0 1685.69 622.01"><defs><style>.cls-1{fill:none;}.cls-2{fill:#f4f4f4;}.cls-3{clip-path:url(#clip-path);}.cls-4{fill:url(#Degradado_sin_nombre_5);}.cls-5{clip-path:url(#clip-path-2);}.cls-6{fill:url(#Degradado_sin_nombre_2);}</style><clipPath id="clip-path" transform="translate(0 0)"><path class="cls-1" d="M355.12,235.15l-8.49,8.49-49.41,49.41-29,29-70.74,70.74-6.23-23.26a6.1,6.1,0,0,0-10.2-2.73l-18.3,18.3a7.93,7.93,0,0,0-2.05,7.66L170,427.59a20.23,20.23,0,0,0,33.85,9.07l63.27-63.27h0l11.71-11.71,29-29,6.9-6.9,0,0,59.63-59.62a16.86,16.86,0,0,1,2.94-2.94,16.63,16.63,0,0,1,10.2-3.51,17,17,0,0,1,16.73,17v290a16.81,16.81,0,0,1-16.6,16.82A16.54,16.54,0,0,1,372,572.12v0a15,15,0,0,1-.47-1.74.11.11,0,0,1,0,0l-12.61-47.07-41.7-155.64A6.1,6.1,0,0,0,307,364.88l-18.3,18.3a7.93,7.93,0,0,0-2.05,7.66l49.78,185.77v0l2,7.27h0a52.16,52.16,0,0,0,46.13,34.89q1.55.1,3.12.1a52.09,52.09,0,0,0,52.14-52.14V276.07a52.21,52.21,0,0,0-84.64-40.92"/></clipPath><linearGradient id="Degradado_sin_nombre_5" x1="-177.13" y1="794.47" x2="-176.13" y2="794.47" gradientTransform="matrix(279.35, 0, 0, -279.35, 49642.01, 222356.99)" gradientUnits="userSpaceOnUse"><stop offset="0" stop-color="#fb3e21"/><stop offset="0.01" stop-color="#fb3e21"/><stop offset="0.22" stop-color="#fb4f1c"/><stop offset="0.64" stop-color="#fb7c10"/><stop offset="0.99" stop-color="#fba704"/><stop offset="1" stop-color="#fba704"/></linearGradient><clipPath id="clip-path-2" transform="translate(0 0)"><path class="cls-1" d="M35.52,2.72A52.23,52.23,0,0,0,0,52.21V390.61a52.21,52.21,0,0,0,28.9,46.73,51.49,51.49,0,0,0,6.62,2.76A52.29,52.29,0,0,0,86.43,430l5.22-5.22L141.52,375v0l11.36-11.36,29-29,12.36-12.36v0l58.38-58.38L258.8,287A6.1,6.1,0,0,0,269,289.7l18.3-18.29a7.93,7.93,0,0,0,2.05-7.66l-4.47-16.66a31,31,0,0,0-51.84-13.89l-37.14,37.14.07.07-24.7,24.7-29,29-.7.7-.07-.07L65.39,400.85a16.83,16.83,0,0,1-2.94,2.94,16.63,16.63,0,0,1-10.2,3.51,17,17,0,0,1-16.73-17V52.48a16.69,16.69,0,0,1,32.36-6v0a16.22,16.22,0,0,1,.77,2.88v0L81.08,95.72l51.82,193.42a6.1,6.1,0,0,0,10.2,2.73l18.3-18.3a7.93,7.93,0,0,0,2.05-7.66L103.33,41.49h0l-1.49-5.56v0A52.25,52.25,0,0,0,55.46.1Q53.85,0,52.21,0A52.14,52.14,0,0,0,35.52,2.72"/></clipPath><linearGradient id="Degradado_sin_nombre_2" x1="-177.13" y1="794.47" x2="-176.13" y2="794.47" gradientTransform="matrix(-289.63, 0, 0, 289.63, -51014.65, -229876.78)" xlink:href="#Degradado_sin_nombre_5"/></defs><title>logo-hidroelectrik-1</title><g id="Capa_2" data-name="Capa 2"><g id="Capa_1-2" data-name="Capa 1"><path class="cls-2" d="M531.28,398.12a5.76,5.76,0,0,1-1.75-4.25V231a6.38,6.38,0,0,1,1.62-4.5,5.72,5.72,0,0,1,4.38-1.75H558.3a5.7,5.7,0,0,1,4.37,1.75,6.35,6.35,0,0,1,1.63,4.5v64.55h73.81V231a6.35,6.35,0,0,1,1.63-4.5,5.68,5.68,0,0,1,4.37-1.75h22.52A6,6,0,0,1,672.9,231V393.87a5.71,5.71,0,0,1-1.76,4.38,6.37,6.37,0,0,1-4.5,1.62H644.12a6,6,0,0,1-6-6V326.82H564.31v67.06a6,6,0,0,1-1.63,4.25,5.66,5.66,0,0,1-4.37,1.75H535.54a5.76,5.76,0,0,1-4.25-1.75" transform="translate(0 0)"/><path class="cls-2" d="M713.68,398.12a5.76,5.76,0,0,1-1.75-4.25V230.74a5.67,5.67,0,0,1,1.75-4.38,6,6,0,0,1,4.25-1.63h23.52a5.61,5.61,0,0,1,6,6V393.87a6,6,0,0,1-1.63,4.25,5.67,5.67,0,0,1-4.37,1.75H717.93a5.76,5.76,0,0,1-4.25-1.75" transform="translate(0 0)"/><path class="cls-2" d="M788.48,398.12a5.76,5.76,0,0,1-1.75-4.25V231a6.38,6.38,0,0,1,1.62-4.5,5.72,5.72,0,0,1,4.38-1.75h61q73.56,0,75.06,68.05.49,14.52.5,19.52,0,4.76-.5,19.26-1,35-18.77,51.67t-55,16.64h-62.3a5.76,5.76,0,0,1-4.26-1.75m65.3-27q21,0,30.28-9.38t9.76-30.9q.49-15,.5-18.76,0-4-.5-18.52-.51-20.51-10.39-30.27t-30.89-9.76h-31V371.1Z" transform="translate(0 0)"/><path class="cls-2" d="M964.37,398.12a5.76,5.76,0,0,1-1.75-4.25V231a6.38,6.38,0,0,1,1.62-4.5,5.72,5.72,0,0,1,4.38-1.75h64.8q30.53,0,47.91,14.26t17.4,40.53q0,18.27-8.89,30.65t-24.64,17.89l36.53,63.8a6.33,6.33,0,0,1,.75,2.76,4.91,4.91,0,0,1-1.63,3.75,5.22,5.22,0,0,1-3.62,1.5h-22.78a9.37,9.37,0,0,1-6.12-1.75,16.34,16.34,0,0,1-3.88-5l-32.27-59.3H997.4v60.05a6,6,0,0,1-1.63,4.25,5.67,5.67,0,0,1-4.37,1.75H968.63a5.77,5.77,0,0,1-4.26-1.75m68.3-92.57q15,0,22.65-6.75t7.63-19.52q0-12.76-7.63-19.77t-22.65-7H997.4v53Z" transform="translate(0 0)"/><path class="cls-2" d="M1144.76,385.12q-19-17.27-20-51.3-.26-7.25-.26-21.27,0-14.26.26-21.51,1-33.27,20.52-51t52.54-17.76q33,0,52.66,17.76t20.64,51q.49,14.51.49,21.51,0,6.76-.49,21.27-1.26,34-20.27,51.3t-53,17.26q-34,0-53-17.26m79.81-21.64q10-10.14,10.76-30.9.49-15,.5-20.27,0-5.76-.5-20.27-.75-20.76-10.76-30.9T1197.81,251q-16.51,0-26.53,10.14T1160.53,292q-.26,7.26-.26,20.27,0,12.76.26,20.27.74,20.77,10.63,30.9t26.65,10.13q16.76,0,26.77-10.13" transform="translate(0 0)"/><path class="cls-2" d="M531.28,617.75a5.76,5.76,0,0,1-1.75-4.25V450.62a6.38,6.38,0,0,1,1.62-4.5,5.72,5.72,0,0,1,4.38-1.75H645.62a6,6,0,0,1,6.26,6.25v16.52a5.67,5.67,0,0,1-1.76,4.38,6.33,6.33,0,0,1-4.5,1.62H563.31v44.29h76.81a6.38,6.38,0,0,1,4.5,1.62,5.72,5.72,0,0,1,1.75,4.38v15.51a5.7,5.7,0,0,1-1.75,4.38,6.36,6.36,0,0,1-4.5,1.63H563.31v45.79h84.32a6,6,0,0,1,6.26,6.25V613.5a5.71,5.71,0,0,1-1.76,4.38,6.37,6.37,0,0,1-4.5,1.62H535.54a5.76,5.76,0,0,1-4.25-1.75" transform="translate(0 0)"/><path class="cls-2" d="M686.9,617.75a5.76,5.76,0,0,1-1.75-4.25V450.37A5.67,5.67,0,0,1,686.9,446a6,6,0,0,1,4.25-1.63h23.27a5.61,5.61,0,0,1,6,6V589.73h79.31A6,6,0,0,1,806,596V613.5a5.68,5.68,0,0,1-1.76,4.38,6.34,6.34,0,0,1-4.5,1.62H691.16a5.76,5.76,0,0,1-4.25-1.75" transform="translate(0 0)"/><path class="cls-2" d="M832,617.75a5.76,5.76,0,0,1-1.75-4.25V450.62a6.38,6.38,0,0,1,1.62-4.5,5.72,5.72,0,0,1,4.38-1.75H946.35a6,6,0,0,1,6.26,6.25v16.52a5.67,5.67,0,0,1-1.76,4.38,6.33,6.33,0,0,1-4.5,1.62H864v44.29h76.81a6.38,6.38,0,0,1,4.5,1.62,5.72,5.72,0,0,1,1.75,4.38v15.51a5.7,5.7,0,0,1-1.75,4.38,6.36,6.36,0,0,1-4.5,1.63H864v45.79h84.32a6,6,0,0,1,6.26,6.25V613.5a5.71,5.71,0,0,1-1.76,4.38,6.37,6.37,0,0,1-4.5,1.62H836.27a5.76,5.76,0,0,1-4.25-1.75" transform="translate(0 0)"/><path class="cls-2" d="M998.51,604.24q-18.89-17.76-20.14-50-.25-6.76-.25-22,0-15.51.25-22.52,1.25-32,20.4-49.92t53.17-17.89q22.26,0,38.78,7.63t25.52,20.77a54.28,54.28,0,0,1,9.51,29.65v.5a4.27,4.27,0,0,1-1.63,3.38,5.48,5.48,0,0,1-3.62,1.38h-23.77a6.88,6.88,0,0,1-4.5-1.25c-1-.83-1.84-2.42-2.5-4.75q-4-15.77-13.27-22.14t-24.76-6.38q-36,0-37.54,40.28-.25,6.76-.25,20.77t.25,21.27q1.51,40.29,37.54,40.28,15.51,0,24.89-6.51t13.14-22c.49-2.33,1.29-3.92,2.37-4.75a7.47,7.47,0,0,1,4.63-1.25h23.77a5.49,5.49,0,0,1,3.87,1.5,4.21,4.21,0,0,1,1.38,3.75,54.28,54.28,0,0,1-9.51,29.65q-9,13.14-25.52,20.77T1051.93,622q-34.52,0-53.42-17.77" transform="translate(0 0)"/><path class="cls-2" d="M1195.8,617.75a5.77,5.77,0,0,1-1.76-4.25V475.14h-46.29a6,6,0,0,1-6-6V450.62a6.35,6.35,0,0,1,1.63-4.5,5.68,5.68,0,0,1,4.37-1.75h127.6a6,6,0,0,1,6.26,6.25v18.52a5.81,5.81,0,0,1-1.75,4.26,6.11,6.11,0,0,1-4.51,1.75h-46V613.5a5.81,5.81,0,0,1-1.76,4.25,6.09,6.09,0,0,1-4.5,1.75h-23a5.76,5.76,0,0,1-4.25-1.75" transform="translate(0 0)"/><path class="cls-2" d="M1308.64,617.75a5.76,5.76,0,0,1-1.75-4.25V450.62a6.38,6.38,0,0,1,1.62-4.5,5.72,5.72,0,0,1,4.38-1.75h64.8q30.53,0,47.91,14.26t17.4,40.53q0,18.27-8.89,30.65t-24.64,17.89L1446,611.5a6.33,6.33,0,0,1,.75,2.76,4.91,4.91,0,0,1-1.63,3.75,5.22,5.22,0,0,1-3.62,1.5h-22.78a9.37,9.37,0,0,1-6.12-1.75,16.34,16.34,0,0,1-3.88-5l-32.27-59.3h-34.78V613.5a6,6,0,0,1-1.63,4.25,5.67,5.67,0,0,1-4.37,1.75H1312.9a5.77,5.77,0,0,1-4.26-1.75m68.3-92.57q15,0,22.65-6.75t7.63-19.52q0-12.76-7.63-19.77t-22.65-7h-35.28v53Z" transform="translate(0 0)"/><path class="cls-2" d="M1477,617.75a5.76,5.76,0,0,1-1.75-4.25V450.37A5.67,5.67,0,0,1,1477,446a6,6,0,0,1,4.25-1.63h23.52a5.61,5.61,0,0,1,6,6V613.5a6,6,0,0,1-1.63,4.25,5.67,5.67,0,0,1-4.37,1.75h-23.52a5.76,5.76,0,0,1-4.25-1.75" transform="translate(0 0)"/><path class="cls-2" d="M1551.83,617.75a5.76,5.76,0,0,1-1.75-4.25V450.62a6.38,6.38,0,0,1,1.62-4.5,5.72,5.72,0,0,1,4.38-1.75h22a6,6,0,0,1,6.26,6.25v58.55l56.54-60.29q3.24-4.51,9.76-4.51h24.77a5.22,5.22,0,0,1,3.62,1.5,4.89,4.89,0,0,1,1.63,3.76,4.69,4.69,0,0,1-1,3l-68.81,75.56L1684.44,611a5,5,0,0,1,1.25,3.25,4.88,4.88,0,0,1-1.63,3.75,5.23,5.23,0,0,1-3.62,1.5h-25.77a11.67,11.67,0,0,1-9.76-4.5l-60.54-66.31V613.5a5.71,5.71,0,0,1-1.76,4.38,6.37,6.37,0,0,1-4.5,1.62h-22a5.76,5.76,0,0,1-4.25-1.75" transform="translate(0 0)"/><g class="cls-3"><rect class="cls-4" x="159.94" y="223.86" width="279.82" height="395.05"/></g><g class="cls-5"><rect class="cls-6" width="290.09" height="442.82"/></g></g></g></svg>